# xmcd
#
# Track frame offsets:
#	150
#	23560
#	33653
#	52430
#	72187
#	93094
#	111909
#	131561
#	150628
#	164091
#
# Disc length: 2526 seconds
#
# Revision: 1
# Processed by: cddbd v1.5.1PL0 Copyright (c) Steve Scherf et al.
# Submitted via: audiograbber 1.83.01
#
DISCID=8809dc0a
DTITLE=Phil Zuckerman - Fly
DYEAR=1999
DGENRE=Blues
TTITLE0=All Along the Watchtower
TTITLE1=Pick a Boogie
TTITLE2=Let Me Love You
TTITLE3=UFO
TTITLE4=Them Changes
TTITLE5=Rock and Roll
TTITLE6=You Are Your Own Best Friend
TTITLE7=Crossroads
TTITLE8=Green Onion's
TTITLE9=Mon Tre's Belle
EXTD=
EXTT0=
EXTT1=
EXTT2=
EXTT3=
EXTT4=
EXTT5=
EXTT6=
EXTT7=
EXTT8=
EXTT9=
PLAYORDER=
